<svg width="64" height="64" viewBox="0 0 64 64" fill="none" xmlns="http://www.w3.org/2000/svg">
  <circle cx="32" cy="32" r="31" fill="url(#paint0_linear)" stroke="rgba(0,0,0,0.06)"/>
  <path d="M21 24.5C21 20.3579 24.3579 17 28.5 17H35.5C39.6421 17 43 20.3579 43 24.5V31.5C43 35.6421 39.6421 39 35.5 39H31.2L25.6 44.1C24.6317 44.9824 23.0833 44.2952 23.0833 42.9841V39C21.9327 37.7271 21 36.0817 21 34.2V24.5Z" fill="#15110B" fill-opacity="0.12"/>
  <path d="M29.0697 25.5198C28.6899 24.6447 28.2826 24.6271 27.9211 24.6124C27.6255 24.6006 27.2868 24.6011 26.9499 24.6011C26.6131 24.6011 26.0661 24.7272 25.6039 25.2292C25.1417 25.7311 23.8398 26.9345 23.8398 29.3885C23.8398 31.8424 25.6452 34.2121 25.8977 34.5467C26.1502 34.8813 29.3951 40.1316 34.5073 42.1679C38.7543 43.8594 39.6192 43.522 40.5401 43.4378C41.4609 43.3536 43.4894 42.2349 43.9098 41.0633C44.3301 39.8918 44.3301 38.8876 44.204 38.6774C44.0779 38.4672 43.741 38.3406 43.2366 38.0881C42.7321 37.8357 40.2452 36.6128 39.7829 36.4446C39.3207 36.2763 38.9876 36.1921 38.6512 36.6966C38.3143 37.2011 37.3521 38.3406 37.057 38.6774C36.7623 39.0143 36.4672 39.056 35.9623 38.8035C35.4579 38.5511 33.8344 38.0187 31.9089 36.3004C30.4104 34.9635 29.398 33.3112 29.1033 32.8063C28.8082 32.3014 29.0712 32.0281 29.3258 31.7768C29.5541 31.551 29.8307 31.1885 30.0832 30.8942C30.3356 30.5992 30.4198 30.3895 30.5881 30.0526C30.756 29.7158 30.6723 29.422 30.5462 29.1696C30.4201 28.9171 29.435 26.4135 29.0697 25.5198Z" fill="#15110B"/>
  <defs>
    <linearGradient id="paint0_linear" x1="10" y1="10" x2="55" y2="55" gradientUnits="userSpaceOnUse">
      <stop stop-color="#E7D3A8"/>
      <stop offset="1" stop-color="#B78F53"/>
    </linearGradient>
  </defs>
</svg>
